<svg version="1.1" id="logo" xmlns="http://www.w3.org/2000/svg" xmlns:xlink="http://www.w3.org/1999/xlink" x="0px" y="0px"
             viewBox="0 0 242.9 48.9" enable-background="new 0 0 242.9 48.9" xml:space="preserve">
                        <path fill="#C60C30" d="M30.1,9.9c-6.1,0-11,0-11.5,0c-1.5,0-4.2,1.2-4.9,2.4L9.3,6.7c2.2-2.2,6.1-4.2,8.6-4.2c2,0,42.8,0,42.8,0
                            l-4.4,7.3c0,0-8.3,0-17.1,0c0,0-13.9,25-16.9,29.9c-2.9,4.9-7.5,7.6-10.2,7.8c-3.7,0.3-5.8,0.2-8.4,0c-1.1-0.1-2.3-0.2-3.1-0.6
                            c-0.7-0.3-0.8-0.2-0.3-1c0.4-0.5,2.2-4.1,2.8-5.2c0.6-1.2,0.2-1.1,1.7-0.7c1.3,0.4,3.1,0.4,3.9,0.4c0.9,0,4.2,0.5,7.1-4.8
                            C18.7,30.5,30.1,9.9,30.1,9.9z"/>
            <path fill="#C60C30" d="M156.1,16.2c1.3,0,3.6,0.7,4.2,1.6c0.6,0.9,0.6,0.7,1,0.3c1.2-1.2,1.1-1.1,1.9-1.1c0.8,0,4.5,0,5.4,0
                            c0.9,0,0.8,0.1,0.1,1.5c-0.7,1.4-7.8,11.7-7.8,15.4c0,2,1,2.2,1.5,2.2c3,0,5.3-2.1,6.5-3.4c0.7-0.7,0.9-0.9,0.7-2.1
                            c-0.2-1.2,0.1-3.5,0.4-5.2c0.3-1.7,2-8,4-11.7c2-3.7,6.2-9.1,9.1-11.2c2.9-2.1,4.8-2.6,7-2.6c2.3,0,5.5,1.2,5.5,5.9
                            c0,4.7-3.2,10.6-5.4,13.8c-2.2,3.2-6.1,8.4-9.4,11.1c-3.4,2.8-3.3,2.4-2.9,3.4c0.4,0.9,1.5,1.3,2.8,0.9c1.3-0.5,2.1-1.1,3.4-1.8
                            c1.3-0.7,1.3-0.7,2.8-2.4c1.5-1.8,7.8-11.5,8.3-12.6c0.5-1.1,0.4-1,1-1c0.6,0,5.6,0,6.4,0c0.8,0,0.6,0.1,0.1,1
                            c-0.5,0.9-7.1,12.3-7.9,13.6c-0.8,1.3,0.2,2.6,1,2.6c0.9,0,1.5-0.6,2.6-1.7c1.1-1,1.5-1.6,2.8-3.8c1.1-2,5.9-10,6.6-11
                            c0.7-1,0.6-0.8,1.4-0.8s4.9,0,5.7,0c0.8,0,0.5,0.1,0,0.9c-0.5,0.8-6.9,11.8-7.7,13.2c-0.8,1.3-1,4,1.2,4c2.1,0,3.9-1,4.6-1.5
                            c0.7-0.5,0.9-0.5,0.7-1.5c-0.1-1,0-3.6,0.4-4.8c0.4-1.2,2-4.8,4.7-7.4c2.7-2.6,6.1-4.9,9.5-4.9c1.2,0,2.4,0.1,4.3,2.1
                            c2.9,3,2.3,4.2,1.6,5.5c-1,1.9-3,4.4-5.4,6.6c-2.4,2.2-5.1,4.6-6,5.3c-0.9,0.6-0.9,1-0.2,1.3c0.7,0.3,2.4,0.7,3.7,0.2
                            c1.3-0.5,3.6-1.8,4.7-2.4c1-0.6,0.9-0.6,1.2,0.2c0.3,0.7,1.2,3.1,1.4,3.8c0.2,0.7,0.1,0.6-0.7,1c-0.8,0.4-5.8,3.5-10,3.5
                            c-4.2,0-5.5-1.3-6.4-2.4c-0.9-1-0.9-1.2-1.8-0.4c-0.9,0.7-5.1,2.9-8,2.9s-4.9-2.6-5.3-3.7c-0.4-1-0.5-1.2-1.4-0.4
                            c-0.9,0.8-5,3.9-8.1,3.9c-3.1,0-3.9-2.2-4.2-3.4c-0.3-1.2-0.4-1-1.6-0.2c-1.2,0.8-6.3,4-9.9,4c-3.6,0-4.2-2.4-4.7-3.3
                            c-0.5-0.9-0.6-0.7-1.4,0c-0.9,0.7-5.5,3.5-9.7,3.5s-4.4-2.1-4.8-3.2c-0.4-1.1-0.4-1-1.4-0.1c-1,0.9-3.2,3.4-7.5,3.4
                            c-4.2,0-7.2-3.2-7.2-8.2c0-5,3.3-10,6.1-12.7C148.3,19.1,152.7,16.2,156.1,16.2z M151.2,24.7c-1.9,1.6-4.2,5.6-4.5,6.2
                            c-1,1.8-1.5,4.8,1.5,4.8c2.9,0,4.8-2.1,5.6-3.7c0.9-1.5,2.1-3.8,3.4-6.7c1.3-2.9-0.4-2.7-1.5-2.7C154.3,22.7,153.1,23.1,151.2,24.7z
                             M179,24c1.4-1.1,4.1-3.5,6.4-7.2c2.3-3.7,2.9-5.9,3.2-7.3c0.4-1.3,0-2.9-1.9-1.5c-1.9,1.4-3.8,3.4-5.1,5.6c-2,3.3-3.4,7-3.9,10
                            C177.4,25.4,178,24.8,179,24z M222,28c1.9-1.1,4.9-3.9,5.7-6.2c0.6-1.7,0.3-2.3-1.5-1.2c-3,1.9-4.5,4.6-5,6.8
                            C221.1,28.4,221.2,28.4,222,28z"/>
            <path fill="#C60C30" d="M44,14.2c1.3,0.7,3.9,2,4.3,2.3c0.5,0.2,0.4,0.4,0.4,1c0,1-0.1,0.9,0.8,0.9c0.9,0,7.1,0,8.1,0
                            s1.3,0.4,0.4,1.7c-0.9,1.3-7.2,12.3-8,13.5c-0.8,1.3-0.9,3,2.5,1.6c1.9-0.8,4.5-2.2,7.3-7c2.8-4.8,5.1-8.6,5.5-9.4
                            c0.4-0.9,0.4-0.7,1.3-0.7c0.9,0,4,0,5,0c1,0,0.9,0.2,0.5,0.9c-0.9,1.4-7,12.2-7.9,13.8c-0.9,1.6-0.7,2.9,0.4,2.9
                            c1.1,0,1.9-0.5,3.5-2c1.7-1.5,2-2.4,2.8-3.9C72,28.1,76.7,20,77.3,19c0.6-1,0.4-0.9,1.6-0.9c1.2,0,5,0,5.7,0c0.7,0,0.3,0.3-0.1,1
                            c-0.4,0.7-6.9,12.2-8,14.1c-1.1,1.9,0.1,3.3,0.9,3.3c0.7,0,2.4,0.2,5-1.8c0.8-0.6,0.9-0.6,0.7-2c-0.1-1.3,0.5-3.3,1.4-5.1
                            c0.9-1.8,6.1-11.9,12.7-11.9c4.3,0,6.6,4.1,6.6,5.5c0,1.4-1.2,5.4-5.1,9c-4,3.6-5.1,4.3-6.1,5c-1,0.6-1,0.9-0.5,1.5
                            c0.6,0.6,1.8,0.9,3.1,0.6c1.2-0.4,4.8-2.6,5.7-3.4c0.9-0.9,0.8-0.8,1.3,0.1c0.5,0.9,1.2,2.8,1.6,3.7c0.4,0.9,0.1,0.8-0.7,1.3
                            c-0.8,0.5-6.4,4.5-10.6,4.5c-4.2,0-6.2-2-6.6-2.5c-0.6-0.8-0.4-0.8-1.3-0.2c-0.9,0.6-6.5,3.1-9.2,3.1c-3.3,0-4.3-2.1-4.7-3.6
                            c-0.2-1-0.2-1-0.8-0.4c-0.6,0.6-4.5,3.6-8.4,3.6c-3.9,0-4.3-2.5-4.6-3.4c-0.3-1.2,0.2-1.6-1.3-0.4c-1,0.9-6.7,4.2-9.3,4.2
                            c-2.6,0-4.8-2.1-4.8-4.8c0-1.9,0.4-2.3,1.7-4.5c1.3-2.3,4.6-7.8,5.4-9.1c0.7-1.3,0.9-1.5-0.2-1.5c-1.1,0-1.5,0-2.3,0
                            c-0.8,0-0.8,0-1.3,0.9C44,25.5,34.4,41.2,33.7,42.3c-0.7,1.1-0.7,0.8-1.6,0.3c-0.9-0.5-2.5-1.5-3.2-2c-0.7-0.4-0.6-0.5-0.1-1.3
                            c0.5-0.9,13.3-23.2,14.1-24.5C43.5,13.6,43.4,13.8,44,14.2z M91.4,28.9c1.9-1.1,4.9-3.9,5.7-6.2c0.6-1.7,0.3-2.3-1.5-1.2
                            c-3,1.9-4.5,4.6-5,6.8C90.4,29.4,90.5,29.4,91.4,28.9z"/>
            <path fill="#C60C30" d="M236.1,37.6c0-1.9,1.6-3.4,3.4-3.4c1.8,0,3.4,1.4,3.4,3.4c0,1.9-1.6,3.4-3.4,3.4
                            C237.7,41,236.1,39.5,236.1,37.6z M239.5,40.4c1.5,0,2.7-1.2,2.7-2.8c0-1.6-1.2-2.8-2.7-2.8c-1.5,0-2.7,1.2-2.7,2.8
                            C236.8,39.2,238,40.4,239.5,40.4z M238.8,39.5h-0.6v-3.9h1.5c0.9,0,1.4,0.3,1.4,1.1c0,0.7-0.4,1-1,1.1l1.1,1.7h-0.7l-1-1.7h-0.7
                            V39.5z M239.5,37.4c0.5,0,0.9,0,0.9-0.6c0-0.5-0.4-0.6-0.8-0.6h-0.8v1.2H239.5z"/>
            <path fill="#C60C30" d="M94.7,1.7c4,0,31.6,0,33.3,0c1.3,0,1.2,0,0.5,2c-0.5,1.5-10.5,31-10.9,32.5c-0.4,1.6,0.2,1.8,1.3,0.6
                            c1.1-1.2,22.4-27.6,24.5-30.3c2.1-2.7,4.3-4.9,7.1-5.9c2.8-1,2.3-0.6,2.8,0.4c0.5,1,2,3.9,2.3,5c0.4,1.1-0.4,0.9-1.2,1.1
                            c-0.6,0.2-3.5,1.8-4.5,3.2c-1.6,2.1-26.4,33.4-29,36c-2.6,2.6-5.9,2.7-7,2.7c-1.1,0-6.2-0.7-6.2-5c0-4.3,2.3-8,4-13.1
                            c1.7-5.1,5.7-17.1,6.5-19.5c0.7-2.3,0-2-1.6-2c-1.6,0-18.7,0-20.6,0c-1.8,0-2.2,0.1-2.8,1c-0.4,0.7-0.4,0.6-1.3,0.6
                            c-0.9,0-7.8,0-8.4,0c-0.8,0-0.6,0.1-0.6-1c0-0.7,1.3-3.4,3.3-5C89.5,2.4,90.7,1.7,94.7,1.7z"/>
                        </svg>